<svg xmlns="http://www.w3.org/2000/svg" width="83.752" height="31" viewBox="0 0 83.752 31"><g transform="translate(-413 -22)"><path d="M5.409-30.41a4.228,4.228,0,0,1,2.8.875,3.8,3.8,0,0,1,1.313,2.312H6.879a1.464,1.464,0,0,0-.52-.883,1.58,1.58,0,0,0-1.016-.322,1.11,1.11,0,0,0-.727.206.72.72,0,0,0-.248.586.688.688,0,0,0,.454.644,7.242,7.242,0,0,0,1.428.429,14.186,14.186,0,0,1,1.734.5,2.861,2.861,0,0,1,1.172.834,2.3,2.3,0,0,1,.5,1.552,2.381,2.381,0,0,1-.429,1.4,2.827,2.827,0,0,1-1.239.958,4.84,4.84,0,0,1-1.916.347,4.933,4.933,0,0,1-2.989-.826A3.484,3.484,0,0,1,1.71-24.151H4.435a1.226,1.226,0,0,0,.5.908,1.9,1.9,0,0,0,1.131.314,1.053,1.053,0,0,0,.727-.223.751.751,0,0,0,.248-.586.7.7,0,0,0-.454-.685,8.35,8.35,0,0,0-1.478-.438,11.818,11.818,0,0,1-1.684-.462,2.781,2.781,0,0,1-1.139-.8,2.231,2.231,0,0,1-.479-1.511,2.466,2.466,0,0,1,.941-2.006A4.1,4.1,0,0,1,5.409-30.41Zm10.7,6.9v2.428H14.838a3.659,3.659,0,0,1-2.518-.8,3.4,3.4,0,0,1-.9-2.65v-3.385H10.182v-2.378H11.42v-2.262h2.824v2.262h1.85v2.378h-1.85v3.435a1.035,1.035,0,0,0,.223.76,1.066,1.066,0,0,0,.751.215Zm5.565-6.9a5.182,5.182,0,0,1,2.452.57,4.177,4.177,0,0,1,1.7,1.643,4.934,4.934,0,0,1,.619,2.51,4.934,4.934,0,0,1-.619,2.51,4.177,4.177,0,0,1-1.7,1.643,5.182,5.182,0,0,1-2.452.57,5.231,5.231,0,0,1-2.461-.57,4.164,4.164,0,0,1-1.709-1.643,4.934,4.934,0,0,1-.619-2.51,4.934,4.934,0,0,1,.619-2.51,4.164,4.164,0,0,1,1.709-1.643A5.231,5.231,0,0,1,21.675-30.41Zm0,2.444a1.8,1.8,0,0,0-1.362.586,2.375,2.375,0,0,0-.553,1.693A2.344,2.344,0,0,0,20.313-24a1.812,1.812,0,0,0,1.362.578A1.785,1.785,0,0,0,23.029-24a2.367,2.367,0,0,0,.545-1.684,2.4,2.4,0,0,0-.545-1.693A1.774,1.774,0,0,0,21.675-27.966ZM31.749-30.41a4.577,4.577,0,0,1,2.989.983,4.357,4.357,0,0,1,1.519,2.7H33.268a1.577,1.577,0,0,0-.545-.925,1.613,1.613,0,0,0-1.04-.33,1.509,1.509,0,0,0-1.222.586,2.646,2.646,0,0,0-.479,1.709,2.646,2.646,0,0,0,.479,1.709,1.509,1.509,0,0,0,1.222.586,1.613,1.613,0,0,0,1.04-.33,1.577,1.577,0,0,0,.545-.925h2.989a4.357,4.357,0,0,1-1.519,2.7,4.577,4.577,0,0,1-2.989.983,4.952,4.952,0,0,1-2.4-.57A4.071,4.071,0,0,1,27.7-23.177a5.1,5.1,0,0,1-.594-2.51,5.144,5.144,0,0,1,.586-2.518,4.018,4.018,0,0,1,1.643-1.635A5,5,0,0,1,31.749-30.41Zm11.229,9.33L40.22-24.994v3.914H37.4V-33.3H40.22v6.7l2.758-3.7H46.3l-3.716,4.607,3.8,4.607Zm7.448-9.33a4.228,4.228,0,0,1,2.8.875,3.8,3.8,0,0,1,1.313,2.312H51.9a1.464,1.464,0,0,0-.52-.883,1.58,1.58,0,0,0-1.016-.322,1.11,1.11,0,0,0-.727.206.72.72,0,0,0-.248.586.688.688,0,0,0,.454.644,7.242,7.242,0,0,0,1.428.429,14.185,14.185,0,0,1,1.734.5,2.861,2.861,0,0,1,1.172.834,2.3,2.3,0,0,1,.5,1.552,2.381,2.381,0,0,1-.429,1.4A2.827,2.827,0,0,1,53-21.311a4.84,4.84,0,0,1-1.916.347A4.933,4.933,0,0,1,48.1-21.79a3.484,3.484,0,0,1-1.371-2.361h2.725a1.226,1.226,0,0,0,.5.908,1.9,1.9,0,0,0,1.131.314,1.053,1.053,0,0,0,.727-.223.751.751,0,0,0,.248-.586.7.7,0,0,0-.454-.685,8.349,8.349,0,0,0-1.478-.438,11.818,11.818,0,0,1-1.684-.462,2.781,2.781,0,0,1-1.139-.8,2.231,2.231,0,0,1-.479-1.511,2.466,2.466,0,0,1,.941-2.006A4.1,4.1,0,0,1,50.426-30.41Z" transform="translate(442.083 66.172)" fill="#d8d8d8"/><path d="M23.5,33A15.5,15.5,0,0,1,12.54,6.54a15.5,15.5,0,0,1,26.392,9.5h-1.91l-1.57,2.65-1.908-2.65H30.3l3.241,4.507-3.123,4.912H33.6l1.57-2.684,1.767,2.465A15.493,15.493,0,0,1,23.5,33Zm.169-17.079a3.838,3.838,0,0,0-2.085.582,4.018,4.018,0,0,0-1.452,1.671,5.836,5.836,0,0,0-.531,2.574,5.843,5.843,0,0,0,.531,2.566,4.01,4.01,0,0,0,1.452,1.68,3.838,3.838,0,0,0,2.085.582,3.429,3.429,0,0,0,1.857-.49,2.959,2.959,0,0,0,1.147-1.334v1.7h2.87V16.039h-2.87v1.705a2.958,2.958,0,0,0-1.147-1.334A3.422,3.422,0,0,0,23.669,15.921Zm-10.922.118h0V18.47h1.266V21.93a3.489,3.489,0,0,0,.92,2.71,3.761,3.761,0,0,0,2.575.818h1.3V22.977H17.9a1.093,1.093,0,0,1-.768-.22,1.06,1.06,0,0,1-.228-.776V18.47h1.89V16.039H16.9V13.727H14.013v2.312H12.747ZM24.6,23.045a1.953,1.953,0,0,1-1.494-.608,2.4,2.4,0,0,1-.565-1.688,2.4,2.4,0,0,1,.565-1.687,2.128,2.128,0,0,1,2.988.008,2.353,2.353,0,0,1,.582,1.679,2.359,2.359,0,0,1-.582,1.671A1.958,1.958,0,0,1,24.6,23.045Zm13.587-.57v0L37,20.833,39,17.841a15.471,15.471,0,0,1-.811,4.632Z" transform="translate(405 20)" fill="#d8d8d8"/></g></svg>